# 3ds Max Wavefront OBJ Exporter v0.97b - (c)2007 guruware
# File Created: 15.02.2016 18:49:25

mtllib Pipe_Straight.mtl

#
# object Pipe_Straight
#

v  0.0000 38.1796 -0.0000
v  0.0000 28.6347 -25.5400
v  -44.5962 28.6347 -25.5400
v  -44.5962 38.1796 -0.0000
v  0.0000 28.6347 25.5400
v  -44.5962 28.6347 25.5400
v  44.5962 28.6347 25.5399
v  44.5962 38.1796 -0.0000
v  44.5962 28.6347 -25.5400
v  0.0000 0.0000 34.0533
v  -44.5962 0.0000 34.0533
v  0.0000 -28.6347 25.5400
v  -44.5962 -28.6347 25.5400
v  44.5962 -28.6347 25.5399
v  44.5962 0.0000 34.0533
v  0.0000 -38.1796 -0.0000
v  -44.5962 -38.1796 -0.0000
v  0.0000 -28.6347 -25.5400
v  -44.5962 -28.6347 -25.5400
v  44.5962 -28.6347 -25.5400
v  44.5962 -38.1796 -0.0000
v  0.0000 -0.0000 -34.0533
v  -44.5962 0.0000 -34.0533
v  44.5962 -0.0000 -34.0533
v  -44.5962 0.0000 -0.0000
v  44.5962 -0.0000 -0.0000
# 26 vertices

vn 0.0000 1.0000 0.0000
vn -0.0000 0.6824 -0.7310
vn 0.0000 0.6824 -0.7310
vn 0.0000 0.6824 0.7310
vn 0.0000 1.0000 -0.0000
vn 0.0000 0.0000 1.0000
vn 0.0000 -0.6824 0.7310
vn -0.0000 -0.6824 0.7310
vn -0.0000 -1.0000 0.0000
vn -0.0000 -0.6824 -0.7310
vn -0.0000 -0.0000 -1.0000
vn -0.0000 0.0000 -1.0000
vn -1.0000 0.0000 0.0000
vn -1.0000 -0.0000 0.0000
vn 1.0000 0.0000 -0.0000
# 15 vertex normals

vt 0.5072 0.5376 0.0000
vt 0.5072 0.4792 0.0000
vt 0.5836 0.4792 0.0000
vt 0.5836 0.5376 0.0000
vt 0.5072 0.5959 0.0000
vt 0.5909 0.6032 0.0000
vt 0.4235 0.6032 0.0000
vt 0.4308 0.5376 0.0000
vt 0.4308 0.4792 0.0000
vt 0.5072 0.6543 0.0000
vt 0.5836 0.6543 0.0000
vt 0.5072 0.7126 0.0000
vt 0.5836 0.7126 0.0000
vt 0.4308 0.7126 0.0000
vt 0.4308 0.6543 0.0000
vt 0.5072 0.3042 0.0000
vt 0.5072 0.2459 0.0000
vt 0.5836 0.2459 0.0000
vt 0.5836 0.3042 0.0000
vt 0.5072 0.3625 0.0000
vt 0.5836 0.3625 0.0000
vt 0.4308 0.3625 0.0000
vt 0.4308 0.3042 0.0000
vt 0.4308 0.2459 0.0000
vt 0.5072 0.4209 0.0000
vt 0.5836 0.4209 0.0000
vt 0.4308 0.4209 0.0000
vt 0.6419 0.6543 0.0000
vt 0.6419 0.5959 0.0000
vt 0.7003 0.5959 0.0000
vt 0.7003 0.6543 0.0000
vt 0.6419 0.7126 0.0000
vt 0.7003 0.7126 0.0000
vt 0.3724 0.6543 0.0000
vt 0.3724 0.5959 0.0000
vt 0.3724 0.7126 0.0000
vt 0.3141 0.7126 0.0000
vt 0.3141 0.6543 0.0000
vt 0.3141 0.5959 0.0000
# 39 texture coords

g Pipe_Straight
usemtl 03___Default
s 1
f 1/1/1 2/2/2 3/3/3 4/4/1 
f 5/5/4 1/1/1 4/4/1 6/6/4 
f 1/1/1 5/5/4 7/7/4 8/8/5 
f 2/2/2 1/1/1 8/8/5 9/9/2 
f 10/10/6 5/5/4 6/6/4 11/11/6 
f 12/12/7 10/10/6 11/11/6 13/13/8 
f 10/10/6 12/12/7 14/14/7 15/15/6 
f 5/5/4 10/10/6 15/15/6 7/7/4 
f 16/16/9 12/17/7 13/18/8 17/19/9 
f 18/20/10 16/16/9 17/19/9 19/21/10 
f 16/16/9 18/20/10 20/22/10 21/23/9 
f 12/17/7 16/16/9 21/23/9 14/24/7 
f 22/25/11 18/20/10 19/21/10 23/26/12 
f 2/2/2 22/25/11 23/26/12 3/3/3 
f 22/25/11 2/2/2 9/9/2 24/27/11 
f 18/20/10 22/25/11 24/27/11 20/22/10 
usemtl 02___Default
s 2
f 25/28/13 4/29/13 3/30/13 23/31/13 
f 17/32/14 25/28/13 23/31/13 19/33/14 
f 25/28/13 17/32/14 13/13/14 11/11/14 
f 4/29/13 25/28/13 11/11/14 6/6/13 
f 26/34/15 8/35/15 7/7/15 15/15/15 
f 21/36/15 26/34/15 15/15/15 14/14/15 
f 26/34/15 21/36/15 20/37/15 24/38/15 
f 8/35/15 26/34/15 24/38/15 9/39/15 
# 24 polygons

