# 3ds Max Wavefront OBJ Exporter v0.97b - (c)2007 guruware
# File Created: 18.02.2016 15:10:47

mtllib Lowpoly_Pipe-Start.mtl

#
# object Minigame_Pipe_Straight
#

v  44.5962 -38.1796 0.0000
v  0.0000 -38.1796 0.0000
v  0.0000 -28.6347 -25.5399
v  44.5962 -28.6347 -25.5399
v  44.5962 -28.6347 25.5400
v  0.0000 -28.6347 25.5400
v  44.5962 0.0000 -34.0533
v  0.0000 0.0000 -34.0533
v  0.0000 28.6347 -25.5399
v  44.5962 28.6347 -25.5399
v  44.5962 38.1796 0.0000
v  0.0000 38.1796 0.0000
v  0.0000 28.6347 25.5400
v  44.5962 28.6347 25.5400
v  44.5962 0.0000 34.0533
v  0.0000 0.0000 34.0533
v  44.5962 0.0000 0.0000
v  0.0000 0.0000 0.0000
# 18 vertices

vn 0.0000 -1.0000 0.0000
vn 0.0000 -1.0000 -0.0000
vn 0.0000 -0.7071 -0.7071
vn 0.0000 -0.7071 0.7071
vn 0.0000 -0.0000 -1.0000
vn -0.0000 0.7071 -0.7071
vn -0.0000 1.0000 -0.0000
vn -0.0000 1.0000 0.0000
vn -0.0000 0.7071 0.7071
vn 0.0000 0.0000 1.0000
vn 0.0000 -0.0000 1.0000
vn 1.0000 0.0000 -0.0000
vn -1.0000 -0.0000 -0.0000
# 13 vertex normals

vt 0.9151 0.7190 0.0000
vt 0.9102 0.6797 0.0000
vt 0.9294 0.7584 0.0000
vt 0.9565 0.5162 0.0000
vt 0.9192 0.4813 0.0000
vt 0.9049 0.4419 0.0000
vt 0.9000 0.4025 0.0000
vt 0.9667 0.7933 0.0000
vt 0.9180 0.3541 0.0000
vt 0.9837 0.7040 0.0000
vt 0.9282 0.6313 0.0000
vt 0.9735 0.4269 0.0000
# 12 texture coords

g Minigame_Pipe_Straight
usemtl Material__74
s 1
f 1/1/1 2/1/2 3/2/3 4/2/3 
f 5/3/4 6/3/4 2/1/2 1/1/1 
f 7/4/5 8/4/5 9/5/6 10/5/6 
f 11/6/7 12/6/8 13/7/9 14/7/9 
f 10/5/6 9/5/6 12/6/8 11/6/7 
f 5/3/4 15/8/10 16/8/11 6/3/4 
f 14/7/9 13/7/9 16/9/11 15/9/10 
s 2
f 17/10/12 1/1/12 4/2/12 7/11/12 
f 11/6/12 17/12/12 7/4/12 10/5/12 
f 17/12/12 11/6/12 14/7/12 15/9/12 
f 1/1/12 17/10/12 15/8/12 5/3/12 
s 1
f 7/11/5 4/2/3 3/2/3 8/11/5 
s 2
f 18/10/13 8/11/13 3/2/13 2/1/13 
f 12/6/13 9/5/13 8/4/13 18/12/13 
f 18/12/13 16/9/13 13/7/13 12/6/13 
f 2/1/13 6/3/13 16/8/13 18/10/13 
# 16 polygons

