# 3ds Max Wavefront OBJ Exporter v0.97b - (c)2007 guruware
# File Created: 15.02.2016 18:49:25

mtllib Pipe_Tri.mtl

#
# object Pipe_Tri
#

v  -39.3248 0.0000 33.4146
v  -44.5962 0.0000 33.4146
v  -44.5962 -28.6347 24.9012
v  -39.3248 -28.6347 24.9012
v  -26.8579 0.0000 33.4146
v  -26.8579 -28.6347 24.9012
v  -26.8579 28.6347 24.9012
v  -39.3248 28.6347 24.9012
v  -44.5962 28.6347 24.9012
v  -39.3249 -38.1796 -0.6388
v  -44.5962 -38.1796 -0.6388
v  -44.5962 -28.6347 -26.1788
v  -39.3249 -28.6347 -26.1788
v  -26.8580 -38.1796 -0.6388
v  -29.4484 -32.0709 -30.0870
v  -39.3249 -0.0000 -34.6921
v  -44.5962 -0.0000 -34.6921
v  -44.5962 28.6347 -26.1788
v  -39.3249 28.6347 -26.1788
v  -35.3714 -0.0000 -36.0100
v  -29.4484 32.0709 -30.0870
v  -0.0002 38.1796 -39.9635
v  -0.0002 38.1796 -27.4966
v  29.4480 32.0709 -30.0870
v  25.5398 28.6347 -39.9635
v  -0.0002 28.6347 -43.9171
v  18.9183 21.2109 -42.8921
v  -18.9187 21.2109 -42.8921
v  -25.5402 28.6347 -39.9635
v  -0.0002 -38.1796 -39.9635
v  -0.0002 -38.1796 -27.4966
v  -25.5402 -28.6347 -39.9635
v  -0.0002 -28.6347 -43.9171
v  -18.9187 -21.2109 -42.8921
v  18.9183 -21.2109 -42.8921
v  25.5398 -28.6347 -39.9635
v  29.4480 -32.0709 -30.0870
v  39.3247 -0.0000 -34.6921
v  39.3247 28.6347 -26.1788
v  44.5962 28.6347 -26.1788
v  44.5962 -0.0000 -34.6921
v  39.3247 -28.6347 -26.1788
v  44.5962 -28.6347 -26.1788
v  35.3710 -0.0000 -36.0100
v  34.0531 0.0000 -39.9635
v  25.5398 0.0000 -43.9171
v  -34.0535 0.0000 -39.9635
v  -25.5402 0.0000 -43.9171
v  -0.0001 0.0000 33.4146
v  -0.0001 -28.6347 24.9012
v  26.8577 -28.6347 24.9012
v  26.8577 0.0000 33.4146
v  -0.0001 28.6347 24.9012
v  26.8577 28.6347 24.9012
v  -0.0002 -38.1796 -0.6388
v  26.8577 -38.1796 -0.6388
v  -0.0002 38.1796 -0.6388
v  26.8577 38.1796 -0.6388
v  -26.8580 38.1796 -0.6388
v  39.3247 0.0000 33.4146
v  39.3247 -28.6347 24.9012
v  44.5962 -28.6347 24.9012
v  44.5962 -0.0000 33.4146
v  39.3247 28.6347 24.9012
v  44.5962 28.6347 24.9012
v  39.3247 -38.1796 -0.6388
v  44.5962 -38.1796 -0.6388
v  -39.3249 38.1796 -0.6388
v  -44.5962 38.1796 -0.6388
v  39.3247 38.1796 -0.6388
v  44.5962 38.1796 -0.6388
v  -44.5962 0.0000 -0.6388
v  -0.0002 0.0000 -45.2350
v  44.5962 -0.0000 -0.6388
# 74 vertices

vn 0.0000 -0.0000 1.0000
vn -0.0000 0.0000 1.0000
vn -0.0000 -0.6824 0.7310
vn 0.0000 -0.6824 0.7310
vn 0.0000 0.6824 0.7310
vn 0.0000 -1.0000 0.0000
vn 0.0000 -0.6824 -0.7310
vn -0.2228 -0.6980 -0.6805
vn -0.0507 -0.9956 0.0793
vn -0.4712 -0.7749 -0.4213
vn -0.1725 0.0102 -0.9850
vn 0.0000 -0.0000 -1.0000
vn 0.0000 0.6824 -0.7310
vn -0.2542 0.6579 -0.7089
vn -0.7069 0.0218 -0.7069
vn -0.4098 0.7874 -0.4605
vn -0.0472 0.8477 -0.5283
vn -0.0535 0.9973 -0.0497
vn 0.4539 0.7680 -0.4519
vn 0.5097 0.4815 -0.7130
vn -0.0150 0.2482 -0.9686
vn 0.1609 0.1399 -0.9770
vn -0.1807 0.1566 -0.9710
vn -0.4859 0.5228 -0.7004
vn 0.0472 -0.8477 -0.5283
vn 0.0535 -0.9973 -0.0497
vn -0.5097 -0.4815 -0.7130
vn 0.0150 -0.2482 -0.9686
vn -0.1609 -0.1399 -0.9770
vn 0.1807 -0.1566 -0.9710
vn 0.4859 -0.5228 -0.7004
vn 0.4072 -0.7891 -0.4599
vn 0.1725 0.0102 -0.9850
vn 0.2542 0.6579 -0.7089
vn -0.0000 -0.0000 -1.0000
vn 0.2576 -0.6611 -0.7047
vn -0.0000 -0.6824 -0.7310
vn 0.7071 0.0000 -0.7071
vn 0.7664 -0.0185 -0.6421
vn 0.2679 -0.0123 -0.9634
vn -0.7664 0.0185 -0.6421
vn -0.2679 0.0123 -0.9634
vn 0.0263 -0.9879 0.1526
vn -0.0000 -0.9971 0.0765
vn -0.0263 0.9879 0.1526
vn 0.0270 0.9942 0.1044
vn 0.0000 0.9971 0.0765
vn 0.0000 0.0000 1.0000
vn 0.0249 -0.9992 0.0309
vn -0.0000 -1.0000 0.0000
vn -0.0249 0.9992 0.0309
vn 0.0000 1.0000 -0.0000
vn 0.0249 0.9992 0.0309
vn -1.0000 0.0000 0.0000
vn -1.0000 -0.0000 0.0000
vn -0.0000 0.0000 -1.0000
vn 1.0000 0.0000 -0.0000
# 57 vertex normals

vt 0.1418 0.1660 0.0000
vt 0.1418 0.1750 0.0000
vt 0.0835 0.1750 0.0000
vt 0.0835 0.1660 0.0000
vt 0.1418 0.1446 0.0000
vt 0.0835 0.1569 0.0000
vt 0.2002 0.1446 0.0000
vt 0.2002 0.1660 0.0000
vt 0.2002 0.1750 0.0000
vt 0.2585 0.3007 0.0000
vt 0.2585 0.2917 0.0000
vt 0.3023 0.2771 0.0000
vt 0.3169 0.3007 0.0000
vt 0.2585 0.3221 0.0000
vt 0.3169 0.3098 0.0000
vt 0.2002 0.3098 0.0000
vt 0.2002 0.3007 0.0000
vt 0.2002 0.2917 0.0000
vt 0.3259 0.2334 0.0000
vt 0.3169 0.2334 0.0000
vt 0.3023 0.1896 0.0000
vt 0.3259 0.1750 0.0000
vt 0.3349 0.2334 0.0000
vt 0.3349 0.1750 0.0000
vt 0.3349 0.2917 0.0000
vt 0.3259 0.2917 0.0000
vt 0.3259 0.0986 0.0000
vt 0.3046 0.0986 0.0000
vt 0.3169 0.0402 0.0000
vt 0.3259 0.0402 0.0000
vt 0.3473 0.0986 0.0000
vt 0.3589 0.0642 0.0000
vt 0.3589 0.1330 0.0000
vt 0.3259 0.1569 0.0000
vt 0.3169 0.1569 0.0000
vt 0.3259 0.3681 0.0000
vt 0.3046 0.3681 0.0000
vt 0.3259 0.3098 0.0000
vt 0.3349 0.3681 0.0000
vt 0.3349 0.3098 0.0000
vt 0.3349 0.4265 0.0000
vt 0.3259 0.4265 0.0000
vt 0.3169 0.4265 0.0000
vt 0.3259 0.5029 0.0000
vt 0.3259 0.5612 0.0000
vt 0.3169 0.5612 0.0000
vt 0.3169 0.5029 0.0000
vt 0.3259 0.4445 0.0000
vt 0.3023 0.4591 0.0000
vt 0.3349 0.4445 0.0000
vt 0.3349 0.5029 0.0000
vt 0.3349 0.5612 0.0000
vt 0.3933 0.0312 0.0000
vt 0.3349 0.0312 0.0000
vt 0.3349 0.0222 0.0000
vt 0.3933 0.0222 0.0000
vt 0.4516 0.0312 0.0000
vt 0.4516 0.0222 0.0000
vt 0.4516 0.0402 0.0000
vt 0.3933 0.0526 0.0000
vt 0.3933 0.1660 0.0000
vt 0.4516 0.1660 0.0000
vt 0.4516 0.1750 0.0000
vt 0.3933 0.1750 0.0000
vt 0.3349 0.1660 0.0000
vt 0.3933 0.1446 0.0000
vt 0.4516 0.1569 0.0000
vt 0.1418 0.0986 0.0000
vt 0.0835 0.0986 0.0000
vt 0.0835 0.0402 0.0000
vt 0.1418 0.0526 0.0000
vt 0.2002 0.0986 0.0000
vt 0.2002 0.0526 0.0000
vt 0.2585 0.3681 0.0000
vt 0.2585 0.4141 0.0000
vt 0.2002 0.3681 0.0000
vt 0.2002 0.4265 0.0000
vt 0.2585 0.0986 0.0000
vt 0.2585 0.0526 0.0000
vt 0.2585 0.1446 0.0000
vt 0.1418 0.0312 0.0000
vt 0.0835 0.0312 0.0000
vt 0.0835 0.0222 0.0000
vt 0.1418 0.0222 0.0000
vt 0.2002 0.0312 0.0000
vt 0.2002 0.0222 0.0000
vt 0.2585 0.4355 0.0000
vt 0.3169 0.4355 0.0000
vt 0.2585 0.4445 0.0000
vt 0.2002 0.4445 0.0000
vt 0.2002 0.4355 0.0000
vt 0.2585 0.1660 0.0000
vt 0.3169 0.1660 0.0000
vt 0.2585 0.1750 0.0000
vt 0.2585 0.0312 0.0000
vt 0.2585 0.0222 0.0000
vt 0.3169 0.0312 0.0000
vt 0.3169 0.0222 0.0000
vt 0.2585 0.2334 0.0000
vt 0.2002 0.2334 0.0000
vt 0.3933 0.0986 0.0000
vt 0.4516 0.0986 0.0000
vt 0.2585 0.5029 0.0000
vt 0.2585 0.5612 0.0000
vt 0.2002 0.5029 0.0000
vt 0.2002 0.5612 0.0000
# 106 texture coords

g Pipe_Tri
usemtl 03___Default
s 1
f 1/1/1 2/2/2 3/3/3 4/4/4 
f 5/5/1 1/1/1 4/4/4 6/6/4 
f 1/1/1 5/5/1 7/7/5 8/8/5 
f 2/2/2 1/1/1 8/8/5 9/9/5 
f 10/10/6 11/11/6 12/12/7 13/13/8 
f 14/14/9 10/10/6 13/13/8 15/15/10 
f 10/10/6 14/14/9 6/16/4 4/17/4 
f 11/11/6 10/10/6 4/17/4 3/18/3 
f 16/19/11 17/20/12 18/21/13 19/22/14 
f 20/23/15 16/19/11 19/22/14 21/24/16 
f 16/19/11 20/23/15 15/25/10 13/26/8 
f 17/20/12 16/19/11 13/26/8 12/12/7 
f 22/27/17 23/28/18 24/29/19 25/30/20 
f 26/31/21 22/27/17 25/30/20 27/32/22 
f 22/27/17 26/31/21 28/33/23 29/34/24 
f 23/28/18 22/27/17 29/34/24 21/35/16 
f 30/36/25 31/37/26 15/15/10 32/38/27 
f 33/39/28 30/36/25 32/38/27 34/40/29 
f 30/36/25 33/39/28 35/41/30 36/42/31 
f 31/37/26 30/36/25 36/42/31 37/43/32 
f 38/44/33 39/45/34 40/46/13 41/47/35 
f 42/48/36 38/44/33 41/47/35 43/49/37 
f 38/44/33 42/48/36 37/50/32 44/51/38 
f 39/45/34 38/44/33 44/51/38 24/52/19 
f 45/53/39 25/54/20 24/55/19 44/56/38 
f 36/57/31 45/53/39 44/56/38 37/58/32 
f 45/53/39 36/57/31 35/59/30 46/60/40 
f 25/54/20 45/53/39 46/60/40 27/32/22 
f 47/61/41 32/62/27 15/63/10 20/64/15 
f 29/65/24 47/61/41 20/64/15 21/24/16 
f 47/61/41 29/65/24 28/33/23 48/66/42 
f 32/62/27 47/61/41 48/66/42 34/67/29 
f 49/68/1 50/69/4 51/70/3 52/71/2 
f 53/72/5 49/68/1 52/71/2 54/73/5 
f 49/68/1 53/72/5 7/7/5 5/5/1 
f 50/69/4 49/68/1 5/5/1 6/6/4 
f 55/74/43 31/37/26 37/43/32 56/75/44 
f 50/76/4 55/74/43 56/75/44 51/77/3 
f 55/74/43 50/76/4 6/16/4 14/14/9 
f 31/37/26 55/74/43 14/14/9 15/15/10 
f 57/78/45 53/72/5 54/73/5 58/79/46 
f 23/28/18 57/78/45 58/79/46 24/29/19 
f 57/78/45 23/28/18 21/35/16 59/80/47 
f 53/72/5 57/78/45 59/80/47 7/7/5 
f 60/81/48 61/82/3 62/83/3 63/84/1 
f 64/85/5 60/81/48 63/84/1 65/86/5 
f 60/81/48 64/85/5 54/73/5 52/71/2 
f 61/82/3 60/81/48 52/71/2 51/70/3 
f 66/87/49 56/75/44 37/43/32 42/88/36 
f 67/89/50 66/87/49 42/88/36 43/49/37 
f 66/87/49 67/89/50 62/90/3 61/91/3 
f 56/75/44 66/87/49 61/91/3 51/77/3 
f 68/92/51 59/80/47 21/35/16 19/93/14 
f 69/94/52 68/92/51 19/93/14 18/21/13 
f 68/92/51 69/94/52 9/9/5 8/8/5 
f 59/80/47 68/92/51 8/8/5 7/7/5 
f 70/95/53 64/85/5 65/86/5 71/96/52 
f 39/97/34 70/95/53 71/96/52 40/98/13 
f 70/95/53 39/97/34 24/29/19 58/79/46 
f 64/85/5 70/95/53 58/79/46 54/73/5 
usemtl 02___Default
s 2
f 72/99/54 2/100/54 9/9/54 69/94/55 
f 17/20/54 72/99/54 69/94/55 18/21/55 
f 72/99/54 17/20/54 12/12/54 11/11/55 
f 2/100/54 72/99/54 11/11/55 3/18/55 
usemtl 03___Default
s 1
f 73/101/56 26/31/21 27/32/22 46/60/40 
f 33/102/28 73/101/56 46/60/40 35/59/30 
f 73/101/56 33/102/28 34/67/29 48/66/42 
f 26/31/21 73/101/56 48/66/42 28/33/23 
usemtl 02___Default
s 2
f 74/103/57 41/47/57 40/46/57 71/104/57 
f 63/105/57 74/103/57 71/104/57 65/106/57 
f 74/103/57 63/105/57 62/90/57 67/89/57 
f 41/47/57 74/103/57 67/89/57 43/49/57 
# 72 polygons

