# 3ds Max Wavefront OBJ Exporter v0.97b - (c)2007 guruware
# File Created: 15.02.2016 18:49:25

mtllib Pipe_Null.mtl

#
# object Pipe_Null
#

v  34.0533 0.0000 -0.0000
v  25.5400 0.0000 -25.5400
v  25.5400 9.7875 -25.5400
v  34.0533 9.7875 -0.0000
v  25.5400 -0.0000 25.5400
v  25.5400 9.7875 25.5400
v  25.5400 -9.7875 25.5400
v  34.0533 -9.7875 -0.0000
v  25.5400 -9.7875 -25.5400
v  0.0000 -0.0000 34.0533
v  0.0000 9.7875 34.0533
v  -25.5400 -0.0000 25.5400
v  -25.5400 9.7875 25.5400
v  -25.5400 -9.7875 25.5400
v  0.0000 -9.7875 34.0533
v  -34.0533 0.0000 -0.0000
v  -34.0533 9.7875 -0.0000
v  -25.5400 0.0000 -25.5400
v  -25.5400 9.7875 -25.5400
v  -25.5400 -9.7875 -25.5400
v  -34.0533 -9.7875 -0.0000
v  0.0000 0.0000 -34.0533
v  0.0000 9.7875 -34.0533
v  0.0000 -9.7875 -34.0534
v  0.0000 9.7875 -0.0000
# 25 vertices

vn 1.0000 0.0000 0.0000
vn 0.7071 0.0000 -0.7071
vn 1.0000 -0.0000 0.0000
vn 0.7071 -0.0000 0.7071
vn 1.0000 -0.0000 -0.0000
vn -0.0000 -0.0000 1.0000
vn -0.7071 -0.0000 0.7071
vn -1.0000 0.0000 -0.0000
vn -1.0000 -0.0000 0.0000
vn -0.7071 0.0000 -0.7071
vn 0.0000 0.0000 -1.0000
vn -0.0000 1.0000 0.0000
vn 0.0000 1.0000 0.0000
# 13 vertex normals

vt 0.6550 0.8578 0.0000
vt 0.6550 0.7995 0.0000
vt 0.6846 0.8141 0.0000
vt 0.6700 0.8578 0.0000
vt 0.6550 0.9162 0.0000
vt 0.6846 0.9016 0.0000
vt 0.6401 0.9162 0.0000
vt 0.6401 0.8578 0.0000
vt 0.6401 0.7995 0.0000
vt 0.7283 0.9311 0.0000
vt 0.6700 0.9311 0.0000
vt 0.7283 0.9162 0.0000
vt 0.7867 0.9311 0.0000
vt 0.7721 0.9016 0.0000
vt 0.7867 0.9461 0.0000
vt 0.7283 0.9461 0.0000
vt 0.6700 0.9461 0.0000
vt 0.8017 0.8578 0.0000
vt 0.8017 0.9162 0.0000
vt 0.7867 0.8578 0.0000
vt 0.8017 0.7995 0.0000
vt 0.7721 0.8141 0.0000
vt 0.8166 0.7995 0.0000
vt 0.8166 0.8578 0.0000
vt 0.8166 0.9162 0.0000
vt 0.7283 0.7845 0.0000
vt 0.7867 0.7845 0.0000
vt 0.7283 0.7995 0.0000
vt 0.6700 0.7845 0.0000
vt 0.6700 0.7696 0.0000
vt 0.7283 0.7696 0.0000
vt 0.7867 0.7696 0.0000
vt 0.7283 0.8578 0.0000
# 33 texture coords

g Pipe_Null
usemtl 03___Default
s 1
f 1/1/1 2/2/2 3/3/2 4/4/3 
f 5/5/4 1/1/1 4/4/3 6/6/4 
f 1/1/1 5/5/4 7/7/4 8/8/5 
f 2/2/2 1/1/1 8/8/5 9/9/2 
f 10/10/6 5/11/4 6/6/4 11/12/6 
f 12/13/7 10/10/6 11/12/6 13/14/7 
f 10/10/6 12/13/7 14/15/7 15/16/6 
f 5/11/4 10/10/6 15/16/6 7/17/4 
f 16/18/8 12/19/7 13/14/7 17/20/9 
f 18/21/10 16/18/8 17/20/9 19/22/10 
f 16/18/8 18/21/10 20/23/10 21/24/8 
f 12/19/7 16/18/8 21/24/8 14/25/7 
f 22/26/11 18/27/10 19/22/10 23/28/11 
f 2/29/2 22/26/11 23/28/11 3/3/2 
f 22/26/11 2/29/2 9/30/2 24/31/11 
f 18/27/10 22/26/11 24/31/11 20/32/10 
s 2
f 25/33/12 23/28/12 19/22/12 17/20/12 
f 11/12/13 25/33/12 17/20/12 13/14/12 
f 25/33/12 11/12/13 6/6/13 4/4/13 
f 23/28/12 25/33/12 4/4/13 3/3/13 
# 20 polygons

