# 3ds Max Wavefront OBJ Exporter v0.97b - (c)2007 guruware
# File Created: 15.02.2016 18:49:25

mtllib Pipe_Bend.mtl

#
# object Pipe_Bend
#

v  -39.4835 -0.0000 -36.6485
v  -34.8447 28.6347 -29.7059
v  -32.0119 28.6347 -32.0262
v  -37.9171 -0.0000 -37.9315
v  -34.8447 -28.6347 -29.7059
v  -32.0119 -28.6347 -32.0262
v  -38.0724 -28.6347 -27.9767
v  -41.2683 -0.0000 -35.6923
v  -38.0724 28.6347 -27.9767
v  -20.9280 -38.1796 -8.8783
v  -14.2960 -38.1796 -14.3104
v  -7.0114 -28.6347 11.9495
v  3.4198 -28.6347 3.4054
v  -18.8970 -28.6347 18.3170
v  -28.4847 -38.1796 -4.8299
v  -2.3726 0.0000 18.8920
v  9.3251 0.0000 9.3107
v  -7.0114 28.6347 11.9495
v  3.4198 28.6347 3.4054
v  -18.8970 28.6347 18.3170
v  -15.7010 0.0000 26.0326
v  -20.9280 38.1796 -8.8783
v  -14.2960 38.1796 -14.3104
v  -28.4847 38.1796 -4.8299
v  -35.0920 -0.0000 -43.2209
v  -26.9027 28.6347 -41.5919
v  -26.1779 28.6347 -45.2357
v  -34.6912 -0.0000 -45.2357
v  -26.9027 -28.6347 -41.5919
v  -26.1779 -28.6347 -45.2357
v  -27.9623 -28.6347 -38.0868
v  -35.6779 -0.0000 -41.2827
v  -27.9623 28.6347 -38.0868
v  -36.6341 -0.0000 -39.4979
v  -29.6916 28.6347 -34.8590
v  -29.6916 -28.6347 -34.8590
v  -43.2065 -0.0000 -35.1064
v  -41.5775 -28.6347 -26.9171
v  -45.2213 -28.6347 -26.1923
v  -45.2213 -0.0000 -34.7056
v  -41.5775 28.6347 -26.9171
v  -45.2213 28.6347 -26.1923
v  -2.3348 -38.1796 -36.7051
v  -0.6379 -38.1796 -45.2357
v  22.2332 -28.6347 -31.8182
v  24.9021 -28.6347 -45.2357
v  18.3314 -28.6347 -18.9113
v  -4.8155 -38.1796 -28.4991
v  -8.8639 -38.1796 -20.9424
v  11.9638 -28.6347 -7.0258
v  -36.6907 -38.1796 -2.3492
v  -31.8038 -28.6347 22.2188
v  -45.2213 -28.6347 24.8877
v  -45.2213 -38.1796 -0.6523
v  30.4225 -0.0000 -30.1892
v  33.4154 -0.0000 -45.2357
v  22.2332 28.6347 -31.8182
v  24.9021 28.6347 -45.2357
v  18.3314 28.6347 -18.9113
v  26.0470 -0.0000 -15.7154
v  18.9064 -0.0000 -2.3870
v  11.9638 28.6347 -7.0258
v  -30.1749 0.0000 30.4081
v  -31.8038 28.6347 22.2188
v  -45.2213 28.6347 24.8877
v  -45.2213 0.0000 33.4010
v  -2.3348 38.1796 -36.7051
v  -0.6379 38.1796 -45.2357
v  -4.8155 38.1796 -28.4991
v  -8.8639 38.1796 -20.9424
v  -36.6907 38.1796 -2.3492
v  -45.2213 38.1796 -0.6523
v  -0.6379 -0.0000 -45.2357
v  -45.2213 -0.0000 -0.6523
# 74 vertices

vn -0.5556 -0.0000 -0.8315
vn -0.4010 0.6922 -0.6001
vn -0.5101 0.6925 -0.5101
vn -0.7071 0.0000 -0.7071
vn -0.4010 -0.6922 -0.6001
vn -0.5101 -0.6925 -0.5101
vn -0.2761 -0.6925 -0.6665
vn -0.3827 -0.0000 -0.9239
vn -0.2761 0.6925 -0.6665
vn 0.0122 -0.9998 0.0183
vn 0.0159 -0.9997 0.0159
vn 0.4151 -0.6647 0.6212
vn 0.5284 -0.6645 0.5284
vn 0.2860 -0.6645 0.6904
vn 0.0086 -0.9997 0.0207
vn 0.5556 -0.0000 0.8315
vn 0.7071 -0.0000 0.7071
vn 0.4151 0.6647 0.6212
vn 0.5284 0.6645 0.5284
vn 0.2860 0.6645 0.6904
vn 0.3827 0.0000 0.9239
vn 0.0122 0.9998 0.0183
vn 0.0159 0.9997 0.0159
vn 0.0086 0.9997 0.0207
vn -0.9700 -0.0000 -0.2429
vn -0.7069 0.6848 -0.1768
vn -0.6961 0.7044 -0.1385
vn -0.9808 -0.0000 -0.1951
vn -0.7069 -0.6848 -0.1768
vn -0.6961 -0.7044 -0.1385
vn -0.6665 -0.6925 -0.2761
vn -0.9239 0.0000 -0.3827
vn -0.6665 0.6925 -0.2761
vn -0.8315 0.0000 -0.5556
vn -0.6001 0.6922 -0.4010
vn -0.6001 -0.6922 -0.4010
vn -0.2429 0.0000 -0.9700
vn -0.1768 -0.6848 -0.7069
vn -0.1385 -0.7044 -0.6961
vn -0.1951 -0.0000 -0.9808
vn -0.1768 0.6848 -0.7069
vn -0.1385 0.7044 -0.6961
vn 0.0106 -0.9999 0.0032
vn 0.0437 -0.9990 0.0087
vn 0.7192 -0.6711 0.1798
vn 0.7465 -0.6486 0.1485
vn 0.6904 -0.6645 0.2860
vn 0.0207 -0.9997 0.0086
vn 0.0183 -0.9998 0.0122
vn 0.6212 -0.6647 0.4151
vn 0.0032 -0.9999 0.0106
vn 0.1798 -0.6711 0.7192
vn 0.1485 -0.6486 0.7465
vn 0.0087 -0.9990 0.0437
vn 0.9702 -0.0000 0.2421
vn 0.9808 -0.0000 0.1951
vn 0.7192 0.6711 0.1798
vn 0.7465 0.6486 0.1485
vn 0.6904 0.6645 0.2860
vn 0.9239 -0.0000 0.3827
vn 0.8315 -0.0000 0.5556
vn 0.6212 0.6647 0.4151
vn 0.2421 -0.0000 0.9702
vn 0.1798 0.6711 0.7192
vn 0.1485 0.6486 0.7465
vn 0.1951 -0.0000 0.9808
vn 0.0106 0.9999 0.0032
vn 0.0437 0.9990 0.0087
vn 0.0207 0.9997 0.0086
vn 0.0183 0.9998 0.0122
vn 0.0032 0.9999 0.0106
vn 0.0087 0.9990 0.0437
vn 0.0000 0.0000 -1.0000
vn -1.0000 0.0000 -0.0000
vn -1.0000 -0.0000 -0.0000
# 75 vertex normals

vt 0.3622 0.7661 0.0000
vt 0.3029 0.7663 0.0000
vt 0.3028 0.7633 0.0000
vt 0.3621 0.7631 0.0000
vt 0.4214 0.7658 0.0000
vt 0.4214 0.7628 0.0000
vt 0.4215 0.7688 0.0000
vt 0.3622 0.7692 0.0000
vt 0.3029 0.7693 0.0000
vt 0.4640 0.8206 0.0000
vt 0.4315 0.7724 0.0000
vt 0.4344 0.7704 0.0000
vt 0.4755 0.8111 0.0000
vt 0.4965 0.8688 0.0000
vt 0.5186 0.8539 0.0000
vt 0.4743 0.8838 0.0000
vt 0.4508 0.8277 0.0000
vt 0.4285 0.7744 0.0000
vt 0.3630 0.9693 0.0000
vt 0.4223 0.9690 0.0000
vt 0.4223 0.9912 0.0000
vt 0.3631 0.9915 0.0000
vt 0.3037 0.9695 0.0000
vt 0.3038 0.9917 0.0000
vt 0.3036 0.9473 0.0000
vt 0.3629 0.9460 0.0000
vt 0.4222 0.9468 0.0000
vt 0.2608 0.8214 0.0000
vt 0.2287 0.8699 0.0000
vt 0.2064 0.8552 0.0000
vt 0.2492 0.8120 0.0000
vt 0.2929 0.7729 0.0000
vt 0.2899 0.7710 0.0000
vt 0.2959 0.7749 0.0000
vt 0.2740 0.8284 0.0000
vt 0.2509 0.8847 0.0000
vt 0.3621 0.7536 0.0000
vt 0.3028 0.7539 0.0000
vt 0.3028 0.7504 0.0000
vt 0.3621 0.7501 0.0000
vt 0.4214 0.7534 0.0000
vt 0.4214 0.7499 0.0000
vt 0.4214 0.7569 0.0000
vt 0.3621 0.7570 0.0000
vt 0.3028 0.7574 0.0000
vt 0.3621 0.7601 0.0000
vt 0.3028 0.7603 0.0000
vt 0.4214 0.7599 0.0000
vt 0.3622 0.7725 0.0000
vt 0.4215 0.7723 0.0000
vt 0.4067 0.7907 0.0000
vt 0.3622 0.7761 0.0000
vt 0.3029 0.7728 0.0000
vt 0.3178 0.7911 0.0000
vt 0.4962 0.7720 0.0000
vt 0.4391 0.7609 0.0000
vt 0.4398 0.7574 0.0000
vt 0.4990 0.7572 0.0000
vt 0.5532 0.7832 0.0000
vt 0.5583 0.7569 0.0000
vt 0.5481 0.8094 0.0000
vt 0.4919 0.7863 0.0000
vt 0.4384 0.7644 0.0000
vt 0.4849 0.7995 0.0000
vt 0.4364 0.7674 0.0000
vt 0.5334 0.8316 0.0000
vt 0.4366 0.8321 0.0000
vt 0.4481 0.8891 0.0000
vt 0.4071 0.8796 0.0000
vt 0.4217 0.8351 0.0000
vt 0.4250 0.7751 0.0000
vt 0.1395 0.6993 0.0000
vt 0.1392 0.6400 0.0000
vt 0.1654 0.6399 0.0000
vt 0.1657 0.6992 0.0000
vt 0.1397 0.7586 0.0000
vt 0.1807 0.7436 0.0000
vt 0.1135 0.7587 0.0000
vt 0.1143 0.6994 0.0000
vt 0.1130 0.6401 0.0000
vt 0.0911 0.6995 0.0000
vt 0.0908 0.6402 0.0000
vt 0.0913 0.7588 0.0000
vt 0.0691 0.7589 0.0000
vt 0.0688 0.6996 0.0000
vt 0.0686 0.6403 0.0000
vt 0.3628 0.9208 0.0000
vt 0.3035 0.9211 0.0000
vt 0.3181 0.8800 0.0000
vt 0.3627 0.8946 0.0000
vt 0.4221 0.9206 0.0000
vt 0.2282 0.7731 0.0000
vt 0.1712 0.7847 0.0000
vt 0.2252 0.7583 0.0000
vt 0.2852 0.7615 0.0000
vt 0.2845 0.7580 0.0000
vt 0.2859 0.7650 0.0000
vt 0.2326 0.7874 0.0000
vt 0.1765 0.8109 0.0000
vt 0.2397 0.8005 0.0000
vt 0.1915 0.8330 0.0000
vt 0.2879 0.7680 0.0000
vt 0.2883 0.8327 0.0000
vt 0.2994 0.7756 0.0000
vt 0.3031 0.8356 0.0000
vt 0.2771 0.8898 0.0000
vt 0.2250 0.6990 0.0000
vt 0.2843 0.6987 0.0000
vt 0.2247 0.6397 0.0000
vt 0.2840 0.6394 0.0000
vt 0.3624 0.8353 0.0000
# 111 texture coords

g Pipe_Bend
usemtl 03___Default
s 1
f 1/1/1 2/2/2 3/3/3 4/4/4 
f 5/5/5 1/1/1 4/4/4 6/6/6 
f 1/1/1 5/5/5 7/7/7 8/8/8 
f 2/2/2 1/1/1 8/8/8 9/9/9 
f 10/10/10 5/11/5 6/12/6 11/13/11 
f 12/14/12 10/10/10 11/13/11 13/15/13 
f 10/10/10 12/14/12 14/16/14 15/17/15 
f 5/11/5 10/10/10 15/17/15 7/18/7 
f 16/19/16 12/20/12 13/21/13 17/22/17 
f 18/23/18 16/19/16 17/22/17 19/24/19 
f 16/19/16 18/23/18 20/25/20 21/26/21 
f 12/20/12 16/19/16 21/26/21 14/27/14 
f 22/28/22 18/29/18 19/30/19 23/31/23 
f 2/32/2 22/28/22 23/31/23 3/33/3 
f 22/28/22 2/32/2 9/34/9 24/35/24 
f 18/29/18 22/28/22 24/35/24 20/36/20 
f 25/37/25 26/38/26 27/39/27 28/40/28 
f 29/41/29 25/37/25 28/40/28 30/42/30 
f 25/37/25 29/41/29 31/43/31 32/44/32 
f 26/38/26 25/37/25 32/44/32 33/45/33 
f 34/46/34 35/47/35 33/45/33 32/44/32 
f 36/48/36 34/46/34 32/44/32 31/43/31 
f 34/46/34 36/48/36 6/6/6 4/4/4 
f 35/47/35 34/46/34 4/4/4 3/3/3 
f 37/49/37 38/50/38 39/51/39 40/52/40 
f 41/53/41 37/49/37 40/52/40 42/54/42 
f 37/49/37 41/53/41 9/9/9 8/8/8 
f 38/50/38 37/49/37 8/8/8 7/7/7 
f 43/55/43 29/56/29 30/57/30 44/58/44 
f 45/59/45 43/55/43 44/58/44 46/60/46 
f 43/55/43 45/59/45 47/61/47 48/62/48 
f 29/56/29 43/55/43 48/62/48 31/63/31 
f 49/64/49 36/65/36 31/63/31 48/62/48 
f 50/66/50 49/64/49 48/62/48 47/61/47 
f 49/64/49 50/66/50 13/15/13 11/13/11 
f 36/65/36 49/64/49 11/13/11 6/12/6 
f 51/67/51 52/68/52 53/69/53 54/70/54 
f 38/71/38 51/67/51 54/70/54 39/51/39 
f 51/67/51 38/71/38 7/18/7 15/17/15 
f 52/68/52 51/67/51 15/17/15 14/16/14 
f 55/72/55 45/73/45 46/74/46 56/75/56 
f 57/76/57 55/72/55 56/75/56 58/77/58 
f 55/72/55 57/76/57 59/78/59 60/79/60 
f 45/73/45 55/72/55 60/79/60 47/80/47 
f 61/81/61 50/82/50 47/80/47 60/79/60 
f 62/83/62 61/81/61 60/79/60 59/78/59 
f 61/81/61 62/83/62 19/84/19 17/85/17 
f 50/82/50 61/81/61 17/85/17 13/86/13 
f 63/87/63 64/88/64 65/89/65 66/90/66 
f 52/91/52 63/87/63 66/90/66 53/69/53 
f 63/87/63 52/91/52 14/27/14 21/26/21 
f 64/88/64 63/87/63 21/26/21 20/25/20 
f 67/92/67 57/93/57 58/77/58 68/94/68 
f 26/95/26 67/92/67 68/94/68 27/96/27 
f 67/92/67 26/95/26 33/97/33 69/98/69 
f 57/93/57 67/92/67 69/98/69 59/99/59 
f 70/100/70 62/101/62 59/99/59 69/98/69 
f 35/102/35 70/100/70 69/98/69 33/97/33 
f 70/100/70 35/102/35 3/33/3 23/31/23 
f 62/101/62 70/100/70 23/31/23 19/30/19 
f 71/103/71 41/104/41 42/54/42 72/105/72 
f 64/106/64 71/103/71 72/105/72 65/89/65 
f 71/103/71 64/106/64 20/36/20 24/35/24 
f 41/104/41 71/103/71 24/35/24 9/34/9 
usemtl 02___Default
s 2
f 73/107/73 28/108/73 27/96/73 68/94/73 
f 56/75/73 73/107/73 68/94/73 58/77/73 
f 73/107/73 56/75/73 46/74/73 44/109/73 
f 28/108/73 73/107/73 44/109/73 30/110/73 
f 74/111/74 40/52/74 39/51/75 54/70/74 
f 66/90/74 74/111/74 54/70/74 53/69/74 
f 74/111/74 66/90/74 65/89/74 72/105/74 
f 40/52/74 74/111/74 72/105/74 42/54/74 
# 72 polygons

